# xmcd CD database file
#
# Track frame offsets:
#	150
#	13510
#	38897
#	67289
#	90265
#	112204
#	136027
#	177090
#	204919
#	237708
#	263220
#
# Disc length: 3874 seconds
#
# Revision: 2
# Processed by: cddbd v1.5.1PL2 Copyright (c) Steve Scherf et al.
# Submitted via: CDex 1.51
#
DISCID=960f200b
DTITLE=Julian and Roman Wasserfuhr Quartet - Remember Chet
DYEAR=2006
DGENRE=Jazz
TTITLE0=There Will Never Be Another You
TTITLE1=If I Should Loose You
TTITLE2=Love For Sale
TTITLE3=You Are A Friend Of Mine
TTITLE4=Bill's Religion
TTITLE5=One More Blues For Chet
TTITLE6=Remember Chet
TTITLE7=Beautiful Black Eyes
TTITLE8=You Don't Know What Love Is
TTITLE9=You Can't Go Home Again
TTITLE10=My Funny Valentine
EXTD=YEAR: 2006
EXTT0=
EXTT1=
EXTT2=
EXTT3=
EXTT4=
EXTT5=
EXTT6=
EXTT7=
EXTT8=
EXTT9=
EXTT10=
PLAYORDER=
